PathFileType	4	(X/Y/Z)	A:\Common\BMMB\PROJECTS\STRATO\DataSTRATO\DataSTRATO\0021~016 ID\0021~aa~ID 016\W8_STRATO_ID_16.trc
DataRate	CameraRate	NumFrames	NumMarkers	Units	OrigDataRate	OrigDataStartFrame	OrigNumFrames
250.00	250.00	6	18	mm	250.00	164	2481
Frame#	Time	r.should			l.should			c7			r.asis			l.asis			sacrum			r.bar1			l.bar1			r.knee1			l.knee1			r.bar2			r.mall			l.bar2			l.mall			r.met			r.heel			l.heel			l.met			
		X1	Y1	Z1	X2	Y2	Z2	X3	Y3	Z3	X4	Y4	Z4	X5	Y5	Z5	X6	Y6	Z6	X7	Y7	Z7	X8	Y8	Z8	X9	Y9	Z9	X10	Y10	Z10	X11	Y11	Z11	X12	Y12	Z12	X13	Y13	Z13	X14	Y14	Z14	X15	Y15	Z15	X16	Y16	Z16	X17	Y17	Z17	X18	Y18	Z18	

1327	5.308000	263.272047	1308.664680	1190.629959	-33.972468	1315.592051	1175.603986	119.736061	1370.527029	1265.866518	223.293382	873.941183	1044.866204	-9.568799	851.670086	1079.690814	130.394384	928.404450	1289.463997	325.948775	798.946679	1122.610688	-75.989820	762.508094	1167.412996	276.468754	450.532526	1077.814460	-26.542321	442.341983	1269.863248	262.455583	405.410767	1053.500175	238.649383	69.289848	978.880227	-33.478454	405.505866	1292.601347	-31.125674	125.841543	1532.927155	230.474621	42.873431	833.036959	182.620496	38.812242	1023.763895	7.973436	146.626443	1599.559784	-0.194887	38.397726	1438.245058	
1328	5.312000	264.459461	1308.957815	1186.128139	-32.766093	1316.512227	1170.923591	121.042825	1371.285677	1261.300921	224.183411	874.911547	1040.619493	-7.925204	852.172971	1074.587464	130.611822	929.057300	1284.765244	326.949030	800.937831	1117.826939	-74.749358	762.037039	1161.924601	277.314186	451.551735	1074.995756	-25.110260	442.075849	1262.353420	263.265967	406.000018	1051.340342	238.730431	69.289505	978.729963	-32.275669	405.480474	1285.213232	-31.082630	129.263759	1529.515505	230.275005	42.535707	832.879782	182.763711	38.877942	1023.756146	8.800320	151.375264	1594.896793	0.203374	38.430654	1437.465668	
1329	5.316000	265.590996	1310.007811	1182.086825	-31.451181	1317.380667	1166.288376	122.330189	1372.045994	1256.743670	225.097811	875.896454	1036.388516	-6.280199	852.718711	1069.517255	130.777434	929.707170	1280.106664	327.823281	802.944958	1113.206625	-73.424026	761.620164	1156.455517	278.140247	452.464104	1072.340727	-23.616638	441.781372	1254.533052	264.105976	406.523198	1049.293756	238.854885	69.422171	978.424907	-31.087006	405.428141	1277.542114	-30.968763	132.771462	1525.963545	230.158269	42.183433	832.773864	182.923466	38.911242	1023.783922	9.848730	156.189844	1589.810371	0.671063	38.367763	1436.596155	
1330	5.320000	266.940624	1310.729742	1177.628517	-30.073056	1318.299413	1161.727190	123.595081	1372.822762	1252.190590	226.036815	876.896024	1032.173753	-4.657984	853.332222	1064.453840	130.937204	930.359125	1275.510430	328.965724	804.797411	1108.516097	-72.018318	761.185169	1150.913954	278.969884	453.269571	1069.851875	-22.192292	441.412508	1246.381164	264.981449	406.992614	1047.336459	239.045888	69.705270	978.065312	-29.868715	405.307323	1269.624233	-29.442066	135.692716	1520.743370	230.107531	41.930009	832.719922	183.216035	38.965292	1023.974657	11.112063	161.028698	1584.285975	1.129979	38.295951	1435.762167	
1331	5.324000	268.148214	1311.438322	1173.176527	-28.795049	1319.320202	1157.171488	124.835506	1373.626351	1247.681856	227.000657	877.910197	1027.975321	-3.087422	853.986323	1059.451103	131.096348	931.022942	1270.946264	329.986989	806.650460	1103.870630	-70.655830	760.808587	1145.483971	279.800266	453.963190	1067.544103	-20.725295	440.946460	1237.807870	265.871018	407.389283	1045.504689	239.213049	69.778994	978.034854	-28.649403	405.130953	1261.481881	-28.242288	138.757691	1515.549183	230.114415	41.725267	832.740545	183.591709	39.011903	1024.260759	12.603327	165.851116	1578.325629	1.635596	38.243487	1434.611440	
1332	5.328000	269.355148	1312.187433	1168.891191	-27.510945	1320.318222	1152.570724	126.078904	1374.453902	1243.193150	227.989568	878.939152	1023.793459	-1.548396	854.664147	1054.460764	131.232977	931.683242	1266.423821	330.907375	808.377624	1099.566340	-69.352873	760.484934	1140.113592	280.620128	454.553872	1065.423250	-19.217946	440.376788	1228.878498	266.769350	407.748967	1043.803215	239.377335	69.800436	978.113234	-27.447185	404.909253	1253.108263	-27.087511	141.767025	1510.163426	230.156243	41.554287	832.784057	183.678985	38.991891	1024.238825	14.306052	170.681119	1571.997643	2.205585	38.210403	1433.047295	
